<svg width="12" height="12" viewBox="0 0 12 12" fill="none" xmlns="http://www.w3.org/2000/svg">
<path d="M10.5 0.75H6C5.80115 0.750199 5.6105 0.82928 5.46989 0.969889C5.32928 1.1105 5.2502 1.30115 5.25 1.5V5.25H1.5C1.30115 5.2502 1.1105 5.32928 0.969889 5.46989C0.82928 5.6105 0.750199 5.80115 0.75 6V11.25H11.25V1.5C11.2498 1.30115 11.1707 1.1105 11.0301 0.969889C10.8895 0.82928 10.6989 0.750199 10.5 0.75ZM3.375 10.5V7.875H4.875V10.5H3.375ZM10.5 10.5H5.625V7.5C5.625 7.40054 5.58549 7.30516 5.51516 7.23483C5.44484 7.16451 5.34946 7.125 5.25 7.125H3C2.90054 7.125 2.80516 7.16451 2.73484 7.23483C2.66451 7.30516 2.625 7.40054 2.625 7.5V10.5H1.5V6H6V1.5H10.5V10.5Z" fill="#6CC31D"/>
<path d="M6.75 3H7.5V3.75H6.75V3Z" fill="#6CC31D"/>
<path d="M9 3H9.75V3.75H9V3Z" fill="#6CC31D"/>
<path d="M6.75 5.25H7.5V6H6.75V5.25Z" fill="#6CC31D"/>
<path d="M9 5.25H9.75V6H9V5.25Z" fill="#6CC31D"/>
<path d="M6.75 7.5H7.5V8.25H6.75V7.5Z" fill="#6CC31D"/>
<path d="M9 7.5H9.75V8.25H9V7.5Z" fill="#6CC31D"/>
</svg>
