<svg width="28" height="28" viewBox="0 0 28 28" fill="none" xmlns="http://www.w3.org/2000/svg">
<path d="M25.8808 13.8086L14.6179 2.55393C14.5368 2.47268 14.4405 2.40821 14.3344 2.36423C14.2284 2.32025 14.1147 2.29761 13.9999 2.29761C13.8851 2.29761 13.7714 2.32025 13.6654 2.36423C13.5594 2.40821 13.463 2.47268 13.3819 2.55393L2.11904 13.8086C1.79092 14.1367 1.60498 14.5825 1.60498 15.0473C1.60498 16.0125 2.38975 16.7973 3.35498 16.7973H4.5417V24.8282C4.5417 25.3121 4.93272 25.7032 5.4167 25.7032H12.2499V19.5782H15.3124V25.7032H22.5831C23.0671 25.7032 23.4581 25.3121 23.4581 24.8282V16.7973H24.6448C25.1097 16.7973 25.5554 16.6141 25.8835 16.2832C26.5644 15.5996 26.5644 14.4922 25.8808 13.8086Z" fill="#BDDD29"/>
</svg>
