<svg width="25" height="25" viewBox="0 0 25 25" fill="none" xmlns="http://www.w3.org/2000/svg">
<g clip-path="url(#clip0)">
<path d="M18.75 0H6.25C5.4212 0 4.62634 0.32924 4.04029 0.915291C3.45424 1.50134 3.125 2.2962 3.125 3.125V21.875C3.125 22.7038 3.45424 23.4987 4.04029 24.0847C4.62634 24.6708 5.4212 25 6.25 25H18.75C19.5788 25 20.3737 24.6708 20.9597 24.0847C21.5458 23.4987 21.875 22.7038 21.875 21.875V3.125C21.875 2.2962 21.5458 1.50134 20.9597 0.915291C20.3737 0.32924 19.5788 0 18.75 0V0ZM17.1875 10.9375C17.1875 12.1807 16.6936 13.373 15.8146 14.2521C14.9355 15.1311 13.7432 15.625 12.5 15.625C11.2568 15.625 10.0645 15.1311 9.18544 14.2521C8.30636 13.373 7.8125 12.1807 7.8125 10.9375C7.8125 9.6943 8.30636 8.50201 9.18544 7.62294C10.0645 6.74386 11.2568 6.25 12.5 6.25C13.7432 6.25 14.9355 6.74386 15.8146 7.62294C16.6936 8.50201 17.1875 9.6943 17.1875 10.9375ZM12.5 17.1875C16.5984 17.1875 18.9781 18.4781 20.3125 19.9297V21.875C20.3125 22.2894 20.1479 22.6868 19.8549 22.9799C19.5618 23.2729 19.1644 23.4375 18.75 23.4375H6.25C5.8356 23.4375 5.43817 23.2729 5.14515 22.9799C4.85212 22.6868 4.6875 22.2894 4.6875 21.875V19.9297C6.02187 18.4766 8.40156 17.1875 12.5 17.1875Z" fill="black"/>
</g>
<defs>
<clipPath id="clip0">
<rect width="25" height="25" fill="white"/>
</clipPath>
</defs>
</svg>
