<svg width="27" height="27" viewBox="0 0 27 27" fill="none" xmlns="http://www.w3.org/2000/svg">
<path d="M7.59375 3.375C6.47487 3.375 5.40181 3.81947 4.61064 4.61064C3.81947 5.40181 3.375 6.47487 3.375 7.59375V8.4375H23.625V7.59375C23.625 6.47487 23.1805 5.40181 22.3894 4.61064C21.5982 3.81947 20.5251 3.375 19.4062 3.375H7.59375ZM3.375 19.4062V10.125H23.625V19.4062C23.625 20.5251 23.1805 21.5982 22.3894 22.3894C21.5982 23.1805 20.5251 23.625 19.4062 23.625H7.59375C6.47487 23.625 5.40181 23.1805 4.61064 22.3894C3.81947 21.5982 3.375 20.5251 3.375 19.4062ZM8.85938 15.1875C9.19504 15.1875 9.51696 15.0542 9.75431 14.8168C9.99166 14.5795 10.125 14.2575 10.125 13.9219C10.125 13.5862 9.99166 13.2643 9.75431 13.0269C9.51696 12.7896 9.19504 12.6562 8.85938 12.6562C8.52371 12.6562 8.20179 12.7896 7.96444 13.0269C7.72709 13.2643 7.59375 13.5862 7.59375 13.9219C7.59375 14.2575 7.72709 14.5795 7.96444 14.8168C8.20179 15.0542 8.52371 15.1875 8.85938 15.1875ZM10.125 18.1406C10.125 17.805 9.99166 17.483 9.75431 17.2457C9.51696 17.0083 9.19504 16.875 8.85938 16.875C8.52371 16.875 8.20179 17.0083 7.96444 17.2457C7.72709 17.483 7.59375 17.805 7.59375 18.1406C7.59375 18.4763 7.72709 18.7982 7.96444 19.0356C8.20179 19.2729 8.52371 19.4062 8.85938 19.4062C9.19504 19.4062 9.51696 19.2729 9.75431 19.0356C9.99166 18.7982 10.125 18.4763 10.125 18.1406ZM13.5 19.4062C13.8357 19.4062 14.1576 19.2729 14.3949 19.0356C14.6323 18.7982 14.7656 18.4763 14.7656 18.1406C14.7656 17.805 14.6323 17.483 14.3949 17.2457C14.1576 17.0083 13.8357 16.875 13.5 16.875C13.1643 16.875 12.8424 17.0083 12.6051 17.2457C12.3677 17.483 12.2344 17.805 12.2344 18.1406C12.2344 18.4763 12.3677 18.7982 12.6051 19.0356C12.8424 19.2729 13.1643 19.4062 13.5 19.4062ZM14.7656 13.9219C14.7656 13.5862 14.6323 13.2643 14.3949 13.0269C14.1576 12.7896 13.8357 12.6562 13.5 12.6562C13.1643 12.6562 12.8424 12.7896 12.6051 13.0269C12.3677 13.2643 12.2344 13.5862 12.2344 13.9219C12.2344 14.2575 12.3677 14.5795 12.6051 14.8168C12.8424 15.0542 13.1643 15.1875 13.5 15.1875C13.8357 15.1875 14.1576 15.0542 14.3949 14.8168C14.6323 14.5795 14.7656 14.2575 14.7656 13.9219ZM18.1406 15.1875C18.4763 15.1875 18.7982 15.0542 19.0356 14.8168C19.2729 14.5795 19.4062 14.2575 19.4062 13.9219C19.4062 13.5862 19.2729 13.2643 19.0356 13.0269C18.7982 12.7896 18.4763 12.6562 18.1406 12.6562C17.805 12.6562 17.483 12.7896 17.2457 13.0269C17.0083 13.2643 16.875 13.5862 16.875 13.9219C16.875 14.2575 17.0083 14.5795 17.2457 14.8168C17.483 15.0542 17.805 15.1875 18.1406 15.1875Z" fill="black"/>
</svg>
